<svg width="2072" height="464" viewBox="0 0 2072 464" fill="none" xmlns="http://www.w3.org/2000/svg">
<path fill-rule="evenodd" clip-rule="evenodd" d="M115 20H275V0H115V20ZM770.396 127.26L813.417 71.28H856.977L803.156 135.54L862.016 207H816.297L770.396 148.14V207H735.116V71.28H770.396V127.26ZM921.955 71.28V145.08C921.955 149.04 922.075 153.12 922.315 157.32C922.675 161.4 923.575 165.12 925.015 168.48C926.575 171.84 928.975 174.6 932.215 176.76C935.455 178.8 940.015 179.82 945.895 179.82C951.775 179.82 956.275 178.8 959.395 176.76C962.635 174.6 965.035 171.84 966.595 168.48C968.155 165.12 969.055 161.4 969.295 157.32C969.655 153.12 969.835 149.04 969.835 145.08V71.28H1004.94V149.94C1004.94 171.06 1000.08 186.48 990.355 196.2C980.755 205.92 965.935 210.78 945.895 210.78C925.855 210.78 910.975 205.92 901.255 196.2C891.535 186.48 886.675 171.06 886.675 149.94V71.28H921.955ZM1077.73 131.94H1084.39C1091.35 131.94 1096.69 130.5 1100.41 127.62C1104.13 124.74 1105.99 120.6 1105.99 115.2C1105.99 109.8 1104.13 105.66 1100.41 102.78C1096.69 99.9 1091.35 98.46 1084.39 98.46H1077.73V131.94ZM1155.31 207H1111.39L1077.73 154.8V207H1042.45V71.28H1097.35C1104.91 71.28 1111.51 72.42 1117.15 74.7C1122.79 76.86 1127.41 79.86 1131.01 83.7C1134.73 87.54 1137.49 91.98 1139.29 97.02C1141.21 102.06 1142.17 107.46 1142.17 113.22C1142.17 123.54 1139.65 131.94 1134.61 138.42C1129.69 144.78 1122.37 149.1 1112.65 151.38L1155.31 207ZM1230.73 101.16V207H1195.45V101.16H1166.47V71.28H1259.71V101.16H1230.73ZM1351.87 156.6L1336.03 111.42L1320.19 156.6H1351.87ZM1361.23 183.42H1310.83L1302.73 207H1265.11L1316.77 71.28H1355.29L1406.95 207H1369.33L1361.23 183.42ZM1466.67 131.94H1473.33C1480.29 131.94 1485.63 130.5 1489.35 127.62C1493.07 124.74 1494.93 120.6 1494.93 115.2C1494.93 109.8 1493.07 105.66 1489.35 102.78C1485.63 99.9 1480.29 98.46 1473.33 98.46H1466.67V131.94ZM1544.25 207H1500.33L1466.67 154.8V207H1431.39V71.28H1486.29C1493.85 71.28 1500.45 72.42 1506.09 74.7C1511.73 76.86 1516.35 79.86 1519.95 83.7C1523.67 87.54 1526.43 91.98 1528.23 97.02C1530.15 102.06 1531.11 107.46 1531.11 113.22C1531.11 123.54 1528.59 131.94 1523.55 138.42C1518.63 144.78 1511.31 149.1 1501.59 151.38L1544.25 207ZM1641.8 156.6L1625.96 111.42L1610.12 156.6H1641.8ZM1651.16 183.42H1600.76L1592.66 207H1555.04L1606.7 71.28H1645.22L1696.88 207H1659.26L1651.16 183.42ZM1721.32 207V71.28H1756.6L1821.76 154.26V71.28H1856.86V207H1821.76L1756.6 124.02V207H1721.32ZM1831 295H761V275H1831V295ZM579.982 382.996H549.418V351.568H528.25V433H549.418V399.412H579.982V433H601.15V351.568H579.982V382.996ZM644.783 395.848V351.568H623.615V398.764C623.615 411.436 626.531 420.688 632.363 426.52C638.195 432.352 647.123 435.268 659.147 435.268C671.171 435.268 680.063 432.352 685.823 426.52C691.655 420.688 694.571 411.436 694.571 398.764V351.568H673.511V395.848C673.511 398.224 673.403 400.672 673.187 403.192C673.043 405.64 672.503 407.872 671.567 409.888C670.631 411.904 669.191 413.56 667.247 414.856C665.375 416.08 662.675 416.692 659.147 416.692C655.619 416.692 652.883 416.08 650.939 414.856C648.995 413.56 647.555 411.904 646.619 409.888C645.755 407.872 645.215 405.64 644.999 403.192C644.855 400.672 644.783 398.224 644.783 395.848ZM764.062 351.568L738.25 385.156V351.568H717.082V433H738.25V397.684L765.79 433H793.222L757.906 390.124L790.198 351.568H764.062ZM829.185 395.848V351.568H808.017V398.764C808.017 411.436 810.933 420.688 816.765 426.52C822.597 432.352 831.525 435.268 843.549 435.268C855.573 435.268 864.465 432.352 870.225 426.52C876.057 420.688 878.973 411.436 878.973 398.764V351.568H857.913V395.848C857.913 398.224 857.805 400.672 857.589 403.192C857.445 405.64 856.905 407.872 855.969 409.888C855.033 411.904 853.593 413.56 851.649 414.856C849.777 416.08 847.077 416.692 843.549 416.692C840.021 416.692 837.285 416.08 835.341 414.856C833.397 413.56 831.957 411.904 831.021 409.888C830.157 407.872 829.617 405.64 829.401 403.192C829.257 400.672 829.185 398.224 829.185 395.848ZM948.463 351.568L922.651 385.156V351.568H901.483V433H922.651V397.684L950.191 433H977.623L942.307 390.124L974.599 351.568H948.463ZM1076.75 371.116C1076.75 374.86 1074.23 378.244 1069.19 381.268C1064.94 376.66 1062.82 373.06 1062.82 370.468C1062.82 368.524 1063.47 366.904 1064.76 365.608C1066.06 364.312 1067.68 363.664 1069.62 363.664C1071.71 363.664 1073.4 364.42 1074.7 365.932C1076.07 367.372 1076.75 369.1 1076.75 371.116ZM1052.77 408.484C1052.77 405.316 1055.33 402.148 1060.44 398.98L1073.29 412.804C1069.48 415.18 1065.77 416.368 1062.17 416.368C1060.87 416.368 1059.65 416.188 1058.5 415.828C1057.42 415.396 1056.45 414.856 1055.58 414.208C1054.72 413.488 1054.03 412.66 1053.53 411.724C1053.03 410.716 1052.77 409.636 1052.77 408.484ZM1099.32 390.232C1096.59 393.904 1093.06 397.792 1088.74 401.896L1078.48 391.096C1081.29 389.656 1083.63 388.252 1085.5 386.884C1087.44 385.444 1088.99 383.968 1090.14 382.456C1091.37 380.872 1092.23 379.216 1092.73 377.488C1093.24 375.688 1093.49 373.708 1093.49 371.548C1093.49 368.38 1092.84 365.464 1091.55 362.8C1090.32 360.064 1088.56 357.688 1086.25 355.672C1084.02 353.656 1081.36 352.108 1078.26 351.028C1075.17 349.876 1071.78 349.3 1068.11 349.3C1064.51 349.3 1061.16 349.876 1058.07 351.028C1054.97 352.108 1052.27 353.656 1049.97 355.672C1047.73 357.616 1045.97 359.956 1044.67 362.692C1043.38 365.428 1042.73 368.38 1042.73 371.548C1042.73 376.3 1044.82 381.304 1048.99 386.56L1050.4 388.18L1048.13 389.26C1045.47 390.484 1043.2 391.708 1041.33 392.932C1039.53 394.084 1037.87 395.488 1036.36 397.144C1034.34 399.304 1032.9 401.572 1032.04 403.948C1031.25 406.252 1030.85 408.916 1030.85 411.94C1030.85 415.324 1031.5 418.456 1032.79 421.336C1034.09 424.144 1035.89 426.592 1038.19 428.68C1040.5 430.768 1043.23 432.388 1046.4 433.54C1049.57 434.692 1053.06 435.268 1056.88 435.268C1065.81 435.268 1075.13 432.028 1084.85 425.548L1091.98 433H1118.33L1100.19 413.668L1101.81 412.156C1103.82 410.284 1105.59 408.52 1107.1 406.864C1108.68 405.136 1110.09 403.444 1111.31 401.788L1099.32 390.232ZM1200.44 415.072H1195.58V369.496H1200.44C1204.04 369.496 1207.28 370.072 1210.16 371.224C1213.04 372.376 1215.46 373.96 1217.4 375.976C1219.42 377.992 1220.96 380.404 1222.04 383.212C1223.12 386.02 1223.66 389.044 1223.66 392.284C1223.66 395.596 1223.12 398.656 1222.04 401.464C1221.04 404.2 1219.52 406.576 1217.51 408.592C1215.56 410.608 1213.15 412.192 1210.27 413.344C1207.39 414.496 1204.12 415.072 1200.44 415.072ZM1205.74 351.568H1174.42V433H1205.74C1211.35 433 1216.57 431.884 1221.4 429.652C1226.29 427.42 1230.54 424.432 1234.14 420.688C1237.81 416.944 1240.66 412.624 1242.67 407.728C1244.76 402.76 1245.8 397.612 1245.8 392.284C1245.8 386.884 1244.76 381.736 1242.67 376.84C1240.58 371.872 1237.7 367.552 1234.03 363.88C1230.43 360.136 1226.18 357.148 1221.29 354.916C1216.46 352.684 1211.28 351.568 1205.74 351.568ZM1296.01 375.652L1305.52 402.76H1286.51L1296.01 375.652ZM1280.89 418.852H1311.13L1315.99 433H1338.57L1307.57 351.568H1284.46L1253.46 433H1276.03L1280.89 418.852ZM1374.39 351.568H1353.23V433H1374.39V383.212L1413.49 433H1434.55V351.568H1413.49V401.356L1374.39 351.568ZM1457.03 433H1478.2V351.568H1457.03V433ZM1538.41 368.308C1540.71 369.172 1543.02 370.54 1545.32 372.412L1553.74 355.888C1549.71 353.728 1545.5 352.108 1541.11 351.028C1536.72 349.876 1532.51 349.3 1528.47 349.3C1524.15 349.3 1520.23 349.948 1516.7 351.244C1513.24 352.54 1510.29 354.376 1507.84 356.752C1505.47 359.056 1503.6 361.864 1502.23 365.176C1500.93 368.416 1500.28 372.052 1500.28 376.084C1500.28 380.116 1500.9 383.464 1502.12 386.128C1503.42 388.72 1505.07 390.88 1507.09 392.608C1509.18 394.336 1511.52 395.74 1514.11 396.82C1516.77 397.828 1519.47 398.764 1522.21 399.628C1524.51 400.42 1526.46 401.14 1528.04 401.788C1529.7 402.436 1531.03 403.156 1532.04 403.948C1533.04 404.668 1533.77 405.496 1534.2 406.432C1534.63 407.296 1534.84 408.34 1534.84 409.564C1534.84 411.58 1533.98 413.38 1532.25 414.964C1530.6 416.548 1528.04 417.34 1524.58 417.34C1521.56 417.34 1518.5 416.656 1515.4 415.288C1512.31 413.92 1509.18 411.832 1506.01 409.024L1496.94 426.088C1505.72 432.208 1515.26 435.268 1525.56 435.268C1530.53 435.268 1534.95 434.584 1538.84 433.216C1542.8 431.92 1546.11 430.084 1548.78 427.708C1551.51 425.26 1553.56 422.344 1554.93 418.96C1556.37 415.576 1557.09 411.796 1557.09 407.62C1557.09 401.428 1555.47 396.424 1552.23 392.608C1549.06 388.72 1544.03 385.624 1537.11 383.32C1535.39 382.744 1533.62 382.204 1531.82 381.7C1530.09 381.196 1528.51 380.62 1527.07 379.972C1525.7 379.252 1524.58 378.424 1523.72 377.488C1522.86 376.552 1522.42 375.364 1522.42 373.924C1522.42 371.836 1523.29 370.144 1525.02 368.848C1526.74 367.552 1528.98 366.904 1531.71 366.904C1533.87 366.904 1536.1 367.372 1538.41 368.308ZM1521.02 463.456L1537.87 447.04L1525.77 438.508L1511.52 456.868L1521.02 463.456ZM1606.93 351.568H1585.98L1572.16 433H1593.22L1600.24 386.128L1618.49 433H1626.91L1646.14 386.128L1653.16 433H1674.22L1660.39 351.568H1639.44L1623.24 394.984L1606.93 351.568ZM1727.8 375.652L1737.31 402.76H1718.3L1727.8 375.652ZM1712.68 418.852H1742.92L1747.78 433H1770.35L1739.36 351.568H1716.25L1685.25 433H1707.82L1712.68 418.852ZM1806.18 351.568H1785.02V433H1806.18V383.212L1845.28 433H1866.34V351.568H1845.28V401.356L1806.18 351.568ZM1935.37 415.072H1909.99V351.568H1888.82V433H1935.37V415.072ZM1951.7 433H1972.87V351.568H1951.7V433ZM2042.26 351.568L2016.45 385.156V351.568H1995.28V433H2016.45V397.684L2043.99 433H2071.42L2036.1 390.124L2068.39 351.568H2042.26ZM89.1736 310.299C90.5685 308.898 92.1627 307.898 93.9561 307.297C95.5502 306.697 97.7421 306.397 100.532 306.397H214.712L218 297.693L212.022 296.192C205.446 294.191 201.062 291.69 198.87 288.688C196.678 285.487 195.582 279.984 195.582 272.181V165.63C195.582 154.825 196.479 146.121 198.273 139.518C200.066 132.915 203.155 126.612 207.538 120.609L211.125 115.506L207.538 111.304H206.918L206.658 111H147.282L147.175 111.304H124.743C109.001 111.304 98.8381 109.404 94.255 105.602L88.8747 102L84.989 105.602V153.925L94.255 157.226L95.7495 150.623C98.1407 140.818 101.229 134.315 105.015 131.114C108.801 127.912 115.377 126.312 124.743 126.312H151.345C156.766 126.312 160.802 127.158 163.454 128.85C163.646 129.098 163.825 129.352 163.991 129.609C166.378 132.811 167.571 138.614 167.571 147.018V199.546H134.308C129.725 199.546 125.839 198.646 122.651 196.845C119.462 195.044 116.174 191.843 112.787 187.24L110.695 184.239L105.314 187.24V233.762L114.281 237.064L116.075 230.161C118.067 223.958 121.056 219.856 125.042 217.855C129.027 215.854 136.001 214.853 145.965 214.853H167.571V270.08C167.571 278.484 166.477 284.287 164.289 287.489C163.893 288.033 163.418 288.563 162.865 289.081C162.714 289.154 162.561 289.223 162.404 289.289C160.013 290.289 156.327 290.789 151.345 290.789H122.352C115.776 290.789 110.695 290.189 107.108 288.989C103.521 287.588 100.731 285.187 98.7385 281.785C96.5465 278.384 94.5539 273.381 92.7605 266.778L90.967 260.775L82 263.477V310.299L87.0813 313L89.1736 310.299ZM263.647 303.397C269.217 307.799 276.08 310 284.235 310C293.584 310 301.839 306.398 309 299.195L304.524 291.091C301.342 293.692 297.861 294.992 294.081 294.992C291.893 294.992 290.103 294.492 288.711 293.492C287.517 292.291 285.826 290.09 283.638 286.888L249.326 224.757C244.75 216.753 238.485 210.95 230.528 207.348L279.163 136.513C282.345 131.911 285.528 128.609 288.711 126.608C292.092 124.407 295.971 122.806 300.347 121.805L306.613 120.305L303.331 111H254.099L249.326 115.202L251.414 120.305C251.613 120.905 252.21 122.506 253.204 125.107C254.398 127.508 254.995 129.91 254.995 132.311C254.995 134.712 254.597 137.013 253.801 139.214C253.204 141.215 251.812 144.117 249.624 147.919L212.626 202.546H206.36C202.779 202.546 200.989 204.747 200.989 209.149C200.989 210.75 201.288 211.751 201.884 212.151C205.664 213.752 208.448 215.352 210.239 216.953C212.228 218.554 214.118 221.055 215.908 224.457L248.43 283.287C253.204 292.291 258.277 298.994 263.647 303.397ZM298.002 363.57H94V343.57H298.002V363.57ZM343 52H328.009H327.988H58.2345H58.2197H53V52.1036C29.1638 52.9331 14.7178 58.5779 6.90447 68.5376C0.0776825 77.2397 0.0609312 88.2039 0.0540829 92.6861C0.0530252 93.3782 0.0522041 93.9158 0.026577 94.2666C0.00886536 94.5091 0 94.7521 0 94.9952C0 109.292 5.43562 119.611 15.522 125.424C24.2621 130.461 35.0308 131.163 44.1429 130.975C45.2539 131.077 46.6577 130.873 48.4117 130.281C63.6247 125.142 82.2289 87.3916 72.1261 96.3763C63.7154 103.856 50.4942 109.676 45.9288 111.059C45.3914 110.984 44.8407 110.952 44.2804 110.966C35.5226 111.188 29.3283 110.297 25.509 108.096C22.8641 106.572 20.073 103.733 20.0014 95.3278C20.1245 93.5253 20.1731 91.9693 20.216 90.5939C20.3517 86.2412 20.431 83.6982 22.6401 80.8822C25.1155 77.7268 32.8828 72.1557 58.2565 72H327.969C352.005 72.1551 359.169 77.6649 361.441 80.7011C362.647 82.3122 363.29 84.2335 363.604 86.7362C363.765 88.0143 363.828 89.3452 363.866 90.849L363.87 91.0353C363.873 91.1684 363.876 91.3073 363.879 91.451L363.886 91.8155V91.8158V91.8161C363.907 92.8831 363.932 94.1524 363.999 95.2949C363.936 103.939 361.165 106.771 358.798 108.201C355.337 110.292 349.636 111.187 341.326 110.966C340.777 110.952 340.237 110.982 339.71 111.053C335.337 109.659 322.752 103.845 314.741 96.3763C305.105 87.3916 322.85 125.142 337.361 130.281C339.033 130.873 340.372 131.077 341.431 130.975C350.168 131.163 360.633 130.46 369.141 125.319C378.924 119.408 384 109.077 384 94.9952C384 94.7633 383.992 94.5314 383.976 94.3001C383.927 93.6003 383.913 92.8879 383.893 91.8728C383.889 91.6635 383.884 91.4414 383.879 91.2038C383.873 90.9401 383.867 90.6574 383.86 90.3522C383.817 88.6438 383.735 86.524 383.449 84.2452C382.87 79.6339 381.418 74.0157 377.455 68.7187C371.082 60.2024 360.089 54.8079 343 52.8387V52ZM116 411H276V391H116V411Z" fill="url(#paint0_linear)"/>
<defs>
<linearGradient id="paint0_linear" x1="75" y1="113.001" x2="1986.5" y2="292.5" gradientUnits="userSpaceOnUse">
<stop stop-color="#FADE9E"/>
<stop offset="1" stop-color="#D4B15F"/>
</linearGradient>
</defs>
</svg>
