<svg width="2086" height="464" viewBox="0 0 2086 464" fill="none" xmlns="http://www.w3.org/2000/svg">
<line x1="761" y1="285" x2="1831" y2="285" stroke="#BFA878" stroke-width="20"/>
<path d="M770.396 127.26L813.416 71.28H856.976L803.156 135.54L862.016 207H816.296L770.396 148.14V207H735.116V71.28H770.396V127.26ZM921.955 71.28V145.08C921.955 149.04 922.075 153.12 922.315 157.32C922.675 161.4 923.575 165.12 925.015 168.48C926.575 171.84 928.975 174.6 932.215 176.76C935.455 178.8 940.015 179.82 945.895 179.82C951.775 179.82 956.275 178.8 959.395 176.76C962.635 174.6 965.035 171.84 966.595 168.48C968.155 165.12 969.055 161.4 969.295 157.32C969.655 153.12 969.835 149.04 969.835 145.08V71.28H1004.94V149.94C1004.94 171.06 1000.08 186.48 990.355 196.2C980.755 205.92 965.935 210.78 945.895 210.78C925.855 210.78 910.975 205.92 901.255 196.2C891.535 186.48 886.675 171.06 886.675 149.94V71.28H921.955ZM1077.73 131.94H1084.39C1091.35 131.94 1096.69 130.5 1100.41 127.62C1104.13 124.74 1105.99 120.6 1105.99 115.2C1105.99 109.8 1104.13 105.66 1100.41 102.78C1096.69 99.9 1091.35 98.46 1084.39 98.46H1077.73V131.94ZM1155.31 207H1111.39L1077.73 154.8V207H1042.45V71.28H1097.35C1104.91 71.28 1111.51 72.42 1117.15 74.7C1122.79 76.86 1127.41 79.86 1131.01 83.7C1134.73 87.54 1137.49 91.98 1139.29 97.02C1141.21 102.06 1142.17 107.46 1142.17 113.22C1142.17 123.54 1139.65 131.94 1134.61 138.42C1129.69 144.78 1122.37 149.1 1112.65 151.38L1155.31 207ZM1230.73 101.16V207H1195.45V101.16H1166.47V71.28H1259.71V101.16H1230.73ZM1351.87 156.6L1336.03 111.42L1320.19 156.6H1351.87ZM1361.23 183.42H1310.83L1302.73 207H1265.11L1316.77 71.28H1355.29L1406.95 207H1369.33L1361.23 183.42ZM1466.67 131.94H1473.33C1480.29 131.94 1485.63 130.5 1489.35 127.62C1493.07 124.74 1494.93 120.6 1494.93 115.2C1494.93 109.8 1493.07 105.66 1489.35 102.78C1485.63 99.9 1480.29 98.46 1473.33 98.46H1466.67V131.94ZM1544.25 207H1500.33L1466.67 154.8V207H1431.39V71.28H1486.29C1493.85 71.28 1500.45 72.42 1506.09 74.7C1511.73 76.86 1516.35 79.86 1519.95 83.7C1523.67 87.54 1526.43 91.98 1528.23 97.02C1530.15 102.06 1531.11 107.46 1531.11 113.22C1531.11 123.54 1528.59 131.94 1523.55 138.42C1518.63 144.78 1511.31 149.1 1501.59 151.38L1544.25 207ZM1641.8 156.6L1625.96 111.42L1610.12 156.6H1641.8ZM1651.16 183.42H1600.76L1592.66 207H1555.04L1606.7 71.28H1645.22L1696.88 207H1659.26L1651.16 183.42ZM1721.32 207V71.28H1756.6L1821.76 154.26V71.28H1856.86V207H1821.76L1756.6 124.02V207H1721.32Z" fill="#BFA878"/>
<path d="M549.418 382.996H579.982V351.568H601.15V433H579.982V399.412H549.418V433H528.25V351.568H549.418V382.996ZM644.783 351.568V395.848C644.783 398.224 644.855 400.672 644.999 403.192C645.215 405.64 645.755 407.872 646.619 409.888C647.555 411.904 648.995 413.56 650.939 414.856C652.883 416.08 655.619 416.692 659.147 416.692C662.675 416.692 665.375 416.08 667.247 414.856C669.191 413.56 670.631 411.904 671.567 409.888C672.503 407.872 673.043 405.64 673.187 403.192C673.403 400.672 673.511 398.224 673.511 395.848V351.568H694.571V398.764C694.571 411.436 691.655 420.688 685.823 426.52C680.063 432.352 671.171 435.268 659.147 435.268C647.123 435.268 638.195 432.352 632.363 426.52C626.531 420.688 623.615 411.436 623.615 398.764V351.568H644.783ZM738.25 385.156L764.062 351.568H790.198L757.906 390.124L793.222 433H765.79L738.25 397.684V433H717.082V351.568H738.25V385.156ZM829.185 351.568V395.848C829.185 398.224 829.257 400.672 829.401 403.192C829.617 405.64 830.157 407.872 831.021 409.888C831.957 411.904 833.397 413.56 835.341 414.856C837.285 416.08 840.021 416.692 843.549 416.692C847.077 416.692 849.777 416.08 851.649 414.856C853.593 413.56 855.033 411.904 855.969 409.888C856.905 407.872 857.445 405.64 857.589 403.192C857.805 400.672 857.913 398.224 857.913 395.848V351.568H878.973V398.764C878.973 411.436 876.057 420.688 870.225 426.52C864.465 432.352 855.573 435.268 843.549 435.268C831.525 435.268 822.597 432.352 816.765 426.52C810.933 420.688 808.017 411.436 808.017 398.764V351.568H829.185ZM922.651 385.156L948.463 351.568H974.599L942.307 390.124L977.623 433H950.191L922.651 397.684V433H901.483V351.568H922.651V385.156ZM1069.19 381.268C1074.23 378.244 1076.75 374.86 1076.75 371.116C1076.75 369.1 1076.07 367.372 1074.7 365.932C1073.4 364.42 1071.71 363.664 1069.62 363.664C1067.68 363.664 1066.06 364.312 1064.76 365.608C1063.47 366.904 1062.82 368.524 1062.82 370.468C1062.82 373.06 1064.94 376.66 1069.19 381.268ZM1060.44 398.98C1055.33 402.148 1052.77 405.316 1052.77 408.484C1052.77 409.636 1053.03 410.716 1053.53 411.724C1054.03 412.66 1054.72 413.488 1055.58 414.208C1056.45 414.856 1057.42 415.396 1058.5 415.828C1059.65 416.188 1060.87 416.368 1062.17 416.368C1065.77 416.368 1069.48 415.18 1073.29 412.804L1060.44 398.98ZM1088.74 401.896C1093.06 397.792 1096.59 393.904 1099.32 390.232L1111.31 401.788C1110.09 403.444 1108.68 405.136 1107.1 406.864C1105.59 408.52 1103.82 410.284 1101.81 412.156L1100.19 413.668L1118.33 433H1091.98L1084.85 425.548C1075.13 432.028 1065.81 435.268 1056.88 435.268C1053.06 435.268 1049.57 434.692 1046.4 433.54C1043.23 432.388 1040.5 430.768 1038.19 428.68C1035.89 426.592 1034.09 424.144 1032.79 421.336C1031.5 418.456 1030.85 415.324 1030.85 411.94C1030.85 408.916 1031.25 406.252 1032.04 403.948C1032.9 401.572 1034.34 399.304 1036.36 397.144C1037.87 395.488 1039.53 394.084 1041.33 392.932C1043.2 391.708 1045.47 390.484 1048.13 389.26L1050.4 388.18L1048.99 386.56C1044.82 381.304 1042.73 376.3 1042.73 371.548C1042.73 368.38 1043.38 365.428 1044.67 362.692C1045.97 359.956 1047.73 357.616 1049.97 355.672C1052.27 353.656 1054.97 352.108 1058.07 351.028C1061.16 349.876 1064.51 349.3 1068.11 349.3C1071.78 349.3 1075.17 349.876 1078.26 351.028C1081.36 352.108 1084.02 353.656 1086.25 355.672C1088.56 357.688 1090.32 360.064 1091.55 362.8C1092.84 365.464 1093.49 368.38 1093.49 371.548C1093.49 373.708 1093.24 375.688 1092.73 377.488C1092.23 379.216 1091.37 380.872 1090.14 382.456C1088.99 383.968 1087.44 385.444 1085.5 386.884C1083.63 388.252 1081.29 389.656 1078.48 391.096L1088.74 401.896ZM1195.58 415.072H1200.44C1204.12 415.072 1207.39 414.496 1210.27 413.344C1213.15 412.192 1215.56 410.608 1217.51 408.592C1219.52 406.576 1221.04 404.2 1222.04 401.464C1223.12 398.656 1223.66 395.596 1223.66 392.284C1223.66 389.044 1223.12 386.02 1222.04 383.212C1220.96 380.404 1219.42 377.992 1217.4 375.976C1215.46 373.96 1213.04 372.376 1210.16 371.224C1207.28 370.072 1204.04 369.496 1200.44 369.496H1195.58V415.072ZM1174.42 351.568H1205.74C1211.28 351.568 1216.46 352.684 1221.29 354.916C1226.18 357.148 1230.43 360.136 1234.03 363.88C1237.7 367.552 1240.58 371.872 1242.67 376.84C1244.76 381.736 1245.8 386.884 1245.8 392.284C1245.8 397.612 1244.76 402.76 1242.67 407.728C1240.66 412.624 1237.81 416.944 1234.14 420.688C1230.54 424.432 1226.29 427.42 1221.4 429.652C1216.57 431.884 1211.35 433 1205.74 433H1174.42V351.568ZM1305.52 402.76L1296.01 375.652L1286.51 402.76H1305.52ZM1311.13 418.852H1280.89L1276.03 433H1253.46L1284.46 351.568H1307.57L1338.57 433H1315.99L1311.13 418.852ZM1353.23 433V351.568H1374.39L1413.49 401.356V351.568H1434.55V433H1413.49L1374.39 383.212V433H1353.23ZM1478.2 351.568V433H1457.03V351.568H1478.2ZM1545.32 372.412C1543.02 370.54 1540.71 369.172 1538.41 368.308C1536.1 367.372 1533.87 366.904 1531.71 366.904C1528.98 366.904 1526.74 367.552 1525.02 368.848C1523.29 370.144 1522.42 371.836 1522.42 373.924C1522.42 375.364 1522.86 376.552 1523.72 377.488C1524.58 378.424 1525.7 379.252 1527.07 379.972C1528.51 380.62 1530.09 381.196 1531.82 381.7C1533.62 382.204 1535.38 382.744 1537.11 383.32C1544.02 385.624 1549.06 388.72 1552.23 392.608C1555.47 396.424 1557.09 401.428 1557.09 407.62C1557.09 411.796 1556.37 415.576 1554.93 418.96C1553.56 422.344 1551.51 425.26 1548.78 427.708C1546.11 430.084 1542.8 431.92 1538.84 433.216C1534.95 434.584 1530.52 435.268 1525.56 435.268C1515.26 435.268 1505.72 432.208 1496.94 426.088L1506.01 409.024C1509.18 411.832 1512.31 413.92 1515.4 415.288C1518.5 416.656 1521.56 417.34 1524.58 417.34C1528.04 417.34 1530.6 416.548 1532.25 414.964C1533.98 413.38 1534.84 411.58 1534.84 409.564C1534.84 408.34 1534.63 407.296 1534.2 406.432C1533.76 405.496 1533.04 404.668 1532.04 403.948C1531.03 403.156 1529.7 402.436 1528.04 401.788C1526.46 401.14 1524.51 400.42 1522.21 399.628C1519.47 398.764 1516.77 397.828 1514.11 396.82C1511.52 395.74 1509.18 394.336 1507.09 392.608C1505.07 390.88 1503.42 388.72 1502.12 386.128C1500.9 383.464 1500.28 380.116 1500.28 376.084C1500.28 372.052 1500.93 368.416 1502.23 365.176C1503.6 361.864 1505.47 359.056 1507.84 356.752C1510.29 354.376 1513.24 352.54 1516.7 351.244C1520.23 349.948 1524.15 349.3 1528.47 349.3C1532.5 349.3 1536.72 349.876 1541.11 351.028C1545.5 352.108 1549.71 353.728 1553.74 355.888L1545.32 372.412ZM1537.87 447.04L1521.02 463.456L1511.52 456.868L1525.77 438.508L1537.87 447.04ZM1572.16 433L1585.98 351.568H1606.93L1623.24 394.984L1639.44 351.568H1660.39L1674.22 433H1653.16L1646.14 386.128L1626.91 433H1618.49L1600.24 386.128L1593.22 433H1572.16ZM1737.31 402.76L1727.8 375.652L1718.3 402.76H1737.31ZM1742.92 418.852H1712.68L1707.82 433H1685.25L1716.25 351.568H1739.36L1770.35 433H1747.78L1742.92 418.852ZM1785.02 433V351.568H1806.18L1845.28 401.356V351.568H1866.34V433H1845.28L1806.18 383.212V433H1785.02ZM1909.99 351.568V415.072H1935.37V433H1888.82V351.568H1909.99ZM1972.87 351.568V433H1951.7V351.568H1972.87ZM2016.45 385.156L2042.26 351.568H2068.39L2036.1 390.124L2071.42 433H2043.99L2016.45 397.684V433H1995.28V351.568H2016.45V385.156Z" fill="#BFA878"/>
<path d="M89.1736 310.299C90.5685 308.898 92.1627 307.898 93.9561 307.297C95.5502 306.697 97.7421 306.397 100.532 306.397H214.712L218 297.693L212.022 296.192C205.446 294.191 201.062 291.69 198.87 288.688C196.678 285.487 195.582 279.984 195.582 272.181V165.63C195.582 154.825 196.479 146.121 198.273 139.518C200.066 132.915 203.155 126.612 207.538 120.609L211.125 115.506L207.538 111.304H124.743C109.001 111.304 98.8381 109.404 94.255 105.602L88.8747 102L84.989 105.602V153.925L94.255 157.226L95.7495 150.623C98.1407 140.818 101.229 134.315 105.015 131.114C108.801 127.912 115.377 126.312 124.743 126.312H151.345C158.319 126.312 163.002 127.712 165.393 130.514C167.585 133.315 168.681 138.918 168.681 147.321V199.546H134.308C129.725 199.546 125.839 198.646 122.651 196.845C119.462 195.044 116.174 191.843 112.787 187.24L110.695 184.239L105.314 187.24V233.762L114.281 237.064L116.075 230.161C118.067 223.958 121.056 219.856 125.042 217.855C129.027 215.854 136.001 214.853 145.965 214.853H168.681V270.38C168.681 276.183 168.283 280.585 167.486 283.586C166.489 286.387 164.796 288.288 162.404 289.289C160.013 290.289 156.327 290.789 151.345 290.789H122.352C115.776 290.789 110.695 290.189 107.108 288.989C103.521 287.588 100.731 285.187 98.7385 281.785C96.5465 278.384 94.5539 273.381 92.7604 266.778L90.967 260.775L82 263.477V310.299L87.0813 313L89.1736 310.299Z" fill="#BFA878"/>
<path d="M144 296.793L150.564 295.293C157.526 293.092 162.101 290.49 164.289 287.489C166.477 284.287 167.571 278.484 167.571 270.08V147.018C167.571 138.614 166.378 132.811 163.991 129.609C161.803 126.208 157.327 123.606 150.564 121.805L144 120.305L147.282 111H206.658L210.239 115.202L206.658 120.305C202.083 126.108 198.901 132.411 197.11 139.214C195.32 145.817 194.425 154.522 194.425 165.327V271.881C194.425 279.685 195.519 285.188 197.707 288.389C199.895 291.391 204.271 293.892 210.835 295.893L216.206 297.394L213.819 306.098H147.282L144 296.793ZM284.235 310C276.08 310 269.217 307.799 263.647 303.397C258.277 298.994 253.204 292.291 248.43 283.287L215.908 224.457C214.118 221.055 212.228 218.554 210.239 216.953C208.448 215.352 205.664 213.752 201.884 212.151C201.288 211.751 200.989 210.75 200.989 209.149C200.989 204.747 202.779 202.546 206.36 202.546H212.626L249.624 147.919C251.812 144.117 253.204 141.215 253.801 139.214C254.597 137.013 254.995 134.712 254.995 132.311C254.995 129.91 254.398 127.508 253.204 125.107C252.21 122.506 251.613 120.905 251.414 120.305L249.326 115.202L254.099 111H303.331L306.613 120.305L300.347 121.805C295.971 122.806 292.092 124.407 288.711 126.608C285.528 128.609 282.345 131.911 279.163 136.513L230.528 207.348C238.485 210.95 244.75 216.753 249.326 224.757L283.638 286.888C285.826 290.09 287.517 292.291 288.711 293.492C290.103 294.492 291.893 294.992 294.081 294.992C297.861 294.992 301.342 293.692 304.524 291.09L309 299.195C301.839 306.398 293.584 310 284.235 310Z" fill="#BFA878"/>
<line x1="94" y1="353.57" x2="298.002" y2="353.57" stroke="#BFA878" stroke-width="20"/>
<line x1="115" y1="10" x2="275" y2="10" stroke="#BFA878" stroke-width="20"/>
<line x1="53" y1="62" x2="343" y2="62" stroke="#BFA878" stroke-width="20"/>
<line x1="116" y1="401" x2="276" y2="401" stroke="#BFA878" stroke-width="20"/>
<path d="M328 62C377.92 62.3124 373.274 84.5823 374 94.9952C374 117.956 358.233 121.418 341.061 120.963" stroke="#BFA878" stroke-width="20" stroke-linecap="round" stroke-linejoin="round"/>
<path d="M314.741 96.3763C305.105 87.3917 322.85 125.142 337.361 130.281C351.872 135.42 341.251 111.332 341.251 111.332C340.635 111.951 324.378 105.361 314.741 96.3763Z" fill="#BFA878"/>
<path d="M58.2258 62C5.89018 62.3124 10.7607 84.5823 10 94.9952C10 117.956 26.5303 121.418 44.5333 120.963" stroke="#BFA878" stroke-width="20" stroke-linecap="round" stroke-linejoin="round"/>
<path d="M72.1261 96.3763C82.2289 87.3917 63.6247 125.142 48.4117 130.281C33.1988 135.42 44.334 111.332 44.334 111.332C44.9794 111.951 62.0232 105.361 72.1261 96.3763Z" fill="#BFA878"/>
</svg>
